<svg width="1051" height="1051" viewBox="0 0 1051 1051" fill="none" xmlns="http://www.w3.org/2000/svg">
<circle cx="525.225" cy="525.225" r="525.225" fill="#009393"/>
<path fill-rule="evenodd" clip-rule="evenodd" d="M1034.56 653.938C1044.94 612.751 1050.45 569.631 1050.45 525.224C1050.45 389.562 999.017 265.914 914.586 172.714C878.946 184.475 835.663 199.98 789.374 216.562C654.765 264.782 494.743 322.106 423.365 322.937C350.739 323.782 208.409 253.389 113.257 199.395C53.2374 275.179 13.6851 367.913 2.94922 469.246L709.215 728.533L1034.56 653.938Z" fill="#08A9A9"/>
<path fill-rule="evenodd" clip-rule="evenodd" d="M1038.44 637.411C1046.31 601.264 1050.45 563.728 1050.45 525.224C1050.45 473.496 1042.97 423.515 1029.04 376.303C936.551 445.916 806.802 531.034 737.662 533.418C666.306 535.878 504.142 473.02 367.73 420.144C293.459 391.355 226.823 365.525 186.633 354.808C131.825 340.193 84.0438 329.969 36.9552 331.314C13.1092 391.307 0 456.735 0 525.224C0 607.277 18.8157 684.935 52.3677 754.12L616.056 818.433L1038.44 637.411Z" fill="#028181"/>
<path fill-rule="evenodd" clip-rule="evenodd" d="M525.225 1050.45C815.298 1050.45 1050.45 815.297 1050.45 525.224C1050.45 519.635 1050.36 514.067 1050.19 508.52C976.807 492.876 910.397 505.289 828.233 526.482C788.419 536.752 722.663 560.308 649.373 586.562C514.764 634.782 354.742 692.106 283.364 692.936C218.095 693.696 96.5293 636.919 3.50391 586.218C16.3643 697.421 63.958 798.042 135.156 876.951L469.247 1047.5C487.64 1049.45 506.316 1050.45 525.225 1050.45Z" fill="#08A9A9"/>
<path fill-rule="evenodd" clip-rule="evenodd" d="M1001.69 746.525C918.182 926.015 736.235 1050.45 525.225 1050.45C289.757 1050.45 90.4789 895.497 23.7969 681.998C75.195 678.1 126.715 688.83 186.633 704.808C226.823 715.525 293.46 741.355 367.731 770.144C504.142 823.02 666.307 885.878 737.662 883.418C800.219 881.261 912.392 811.375 1001.69 746.525Z" fill="#028181"/>
<g clip-path="url(#clip0_4655_17296)">
<path d="M299.57 458.782L358.113 292.396L740.185 310.883L783.322 517.325L546.068 754.58H478.281L299.57 548.137V458.782Z" fill="#009393"/>
<path fill-rule="evenodd" clip-rule="evenodd" d="M318.657 262.559H739.419C749.962 262.559 759.019 268.587 763.534 276.131L885.682 488.769C891.711 499.312 890.196 514.398 881.167 523.456L544.867 858.271C534.324 868.814 516.208 868.814 505.665 858.271L169.365 524.97C160.307 515.912 158.822 500.855 164.851 490.283L296.056 276.131C300.571 267.102 309.599 262.559 318.657 262.559ZM685.131 357.592V417.909H565.982V458.625C650.443 463.139 713.76 481.254 713.76 502.37V547.6C713.76 568.715 650.414 588.316 565.982 591.345V693.892H486.065V594.345C401.604 589.83 338.258 571.715 338.258 550.6V505.369C338.258 484.254 401.604 464.653 486.065 461.624V419.394H366.916V359.077H685.131V357.592ZM526.781 562.686C617.27 562.686 691.159 547.6 710.76 526.485C695.674 508.398 638.357 494.826 567.497 491.797V535.542C553.925 535.542 541.867 537.057 528.295 537.057C514.723 537.057 501.151 537.057 489.094 535.542V491.797C418.205 494.826 360.917 509.884 345.83 526.485C360.888 547.6 436.291 562.686 526.781 562.686Z" fill="white"/>
</g>
<rect x="618" y="606.645" width="289.312" height="289.312" rx="144.656" fill="#191B1E"/>
<path d="M830.49 702.758L837.855 710.094L852.584 695.421L845.219 688.084C833.044 675.955 813.227 675.955 801.052 688.084L793.688 695.421L786.323 688.084C774.148 675.955 754.331 675.955 742.156 688.084L734.791 695.421L727.426 688.084C715.251 675.955 695.434 675.955 683.259 688.084L675.895 695.421L690.624 710.094L697.989 702.758C702.054 698.708 708.653 698.708 712.718 702.758L720.083 710.094L712.718 717.431C700.543 729.56 700.543 749.302 712.718 761.431L720.083 768.768L690.645 798.093L720.083 827.419L734.812 812.746L720.083 798.072L734.812 783.399L764.25 812.725L793.688 783.399L808.417 798.072L793.688 812.746L808.417 827.419L837.855 798.093L808.417 768.768L815.782 761.431C827.957 749.302 827.957 729.56 815.782 717.431L808.417 710.094L815.782 702.758C819.847 698.708 826.446 698.708 830.511 702.758H830.49ZM756.885 702.758C760.951 698.708 767.549 698.708 771.615 702.758L778.979 710.094L764.25 724.768L749.52 710.094L756.885 702.758ZM727.448 746.757C723.382 742.707 723.382 736.134 727.448 732.084L734.812 724.747L749.542 739.42L734.812 754.094L727.448 746.757ZM764.25 783.42L749.52 768.746L764.25 754.073L778.979 768.746L764.25 783.42ZM801.052 732.084C805.118 736.134 805.118 742.707 801.052 746.757L793.688 754.094L778.958 739.42L793.688 724.747L801.052 732.084Z" fill="#EFEB00"/>
<defs>
<clipPath id="clip0_4655_17296">
<rect width="728.112" height="728.112" fill="white" transform="translate(161.203 161.132)"/>
</clipPath>
</defs>
</svg>
